<svg xmlns="http://www.w3.org/2000/svg" version="1.1" xmlns:xlink="http://www.w3.org/1999/xlink"
     xmlns:svgjs="http://svgjs.com/svgjs" width="256" height="256" viewBox="0 0 100 100">
    <g class="wrap" transform="matrix(1,0,0,1,0,0)">
        <defs class="background">
            <g id="background">
                <path fill="url(#background-gradient)" stroke="none"
                      d=" M 97.45 2.65 Q 94.8 0 91.15 0 L 8.85 0 Q 5.2 0 2.65 2.65 0 5.2 0 8.85 L 0 91.15 Q 0 94.8 2.65 97.45 5.2 100 8.85 100 L 91.15 100 Q 94.8 100 97.45 97.45 100 94.8 100 91.15 L 100 8.85 Q 100 5.2 97.45 2.65 Z"></path>
            </g>
            <g id="middle-1">
                <path fill="#000000" fill-opacity="0.10196078431372549" stroke="none"
                      d=" M 97.45 2.65 Q 94.85 0 91.15 0 L 8.85 0 Q 4.95 0 2.65 2.55 L 97.15 97.6 Q 100 95.05 100 91.15 L 100 8.85 Q 100 5.2 97.45 2.65 Z"></path>
            </g>
            <mask id="mask">
                <path fill="#FFFFFF" stroke="none"
                      d=" M 97.45 2.65 Q 94.8 0 91.15 0 L 8.85 0 Q 5.2 0 2.65 2.65 0 5.2 0 8.85 L 0 91.15 Q 0 94.8 2.65 97.45 5.2 100 8.85 100 L 91.15 100 Q 94.8 100 97.45 97.45 100 94.8 100 91.15 L 100 8.85 Q 100 5.2 97.45 2.65 Z"></path>
            </mask>

            <linearGradient id="background-gradient" x1="0" y1="0" y2="1" x2="0" gradientTransform="rotate(90 0.5 0.5)">
                <stop stop-color="#e14eca" offset="0%"></stop>
                <stop stop-color="#e14eca" offset="100%"></stop>
            </linearGradient>


            <linearGradient class="shapgradient" gradientTransform="rotate(0 0.5 0.5)" id="SvgjsLinearGradient1004">
                <stop stop-color="#ffffff" offset="0"></stop>
                <stop stop-color="#ffffff" offset="1"></stop>
            </linearGradient>
            <filter width="200%" height="200%" x="-50%" y="-50%" id="SvgjsFilter1912">
                <feGaussianBlur id="SvgjsFeGaussianBlur1907" result="SvgjsFeGaussianBlur1907" in="SourceAlpha"
                                stdDeviation="2 2"></feGaussianBlur>
                <feOffset id="SvgjsFeOffset1908" result="SvgjsFeOffset1908" in="SvgjsFeGaussianBlur1907"
                          dy="2.82842712474619" dx="2.8284271247461903"></feOffset>
                <feFlood id="SvgjsFeFlood1909" result="SvgjsFeFlood1909" in="SourceGraphic" flood-opacity="0.59"
                         flood-color="#626262"></feFlood>
                <feComposite id="SvgjsFeComposite1910" result="SvgjsFeComposite1910" in="SvgjsFeFlood1909" operator="in"
                             in2="SvgjsFeOffset1908"></feComposite>
                <feBlend id="SvgjsFeBlend1911" result="SvgjsFeBlend1911" in="SourceGraphic"></feBlend>
            </filter>
        </defs>
        <use xlink:href="#background" fill="url(#background-gradient)" class="background"></use>
        <use xlink:href="#middle-1" class="background"></use>
        <g class="geditable" mask="url(&quot;#mask&quot;)">
            <g mask="url(&quot;#mask&quot;)" fill="url(#SvgjsLinearGradient1004)" class="editable"
               filter="url(#SvgjsFilter1912)">
                <path d="M618.6666473388672 570.6666575113932H554.6666473388672C536.9966473388672 570.6666575113932 522.6666473388672 584.9966575113932 522.6666473388672 602.6666575113932V730.6666575113932C522.6666473388672 748.3366575113932 536.9966473388672 762.6666575113932 554.6666473388672 762.6666575113932H618.6666473388672C636.3366473388671 762.6666575113932 650.6666473388672 748.3366575113932 650.6666473388672 730.6666575113932V602.6666575113932C650.6666473388672 584.9966575113932 636.3366473388671 570.6666575113932 618.6666473388672 570.6666575113932ZM602.6666473388672 714.6666575113932H570.6666473388672V618.6666575113932H602.6666473388672V714.6666575113932ZM778.6666473388672 442.6666575113932H714.6666473388672C696.9966473388672 442.6666575113932 682.6666473388672 456.9966575113932 682.6666473388672 474.6666575113932V730.6666575113932C682.6666473388672 748.3366575113932 696.9966473388672 762.6666575113932 714.6666473388672 762.6666575113932H778.6666473388672C796.3366473388671 762.6666575113932 810.6666473388672 748.3366575113932 810.6666473388672 730.6666575113932V474.6666575113932C810.6666473388672 456.9966575113932 796.3366473388671 442.6666575113932 778.6666473388672 442.6666575113932ZM762.6666473388672 714.6666575113932H730.6666473388672V490.6666575113932H762.6666473388672V714.6666575113932ZM458.66664733886716 442.6666575113932H394.66664733886716C376.99664733886715 442.6666575113932 362.66664733886716 456.9966575113932 362.66664733886716 474.6666575113932V730.6666575113932C362.66664733886716 748.3366575113932 376.9966473388672 762.6666575113932 394.66664733886716 762.6666575113932H458.66664733886716C476.3366473388672 762.6666575113932 490.66664733886716 748.3366575113932 490.66664733886716 730.6666575113932V474.6666575113932C490.66664733886716 456.9966575113932 476.3366473388672 442.6666575113932 458.66664733886716 442.6666575113932ZM442.66664733886716 714.6666575113932H410.66664733886716V490.6666575113932H442.66664733886716V714.6666575113932ZM298.66664733886716 602.6666575113932H234.66664733886716C216.99664733886715 602.6666575113932 202.66664733886716 616.9966575113932 202.66664733886716 634.6666575113932V730.6666575113932C202.66664733886716 748.3366575113932 216.99664733886718 762.6666575113932 234.66664733886716 762.6666575113932H298.66664733886716C316.3366473388672 762.6666575113932 330.66664733886716 748.3366575113932 330.66664733886716 730.6666575113932V634.6666575113932C330.66664733886716 616.9966575113932 316.3366473388672 602.6666575113932 298.66664733886716 602.6666575113932ZM282.66664733886716 714.6666575113932H250.66664733886716V650.6666575113932H282.66664733886716V714.6666575113932ZM266.66664733886716 506.6666575113932C293.17664733886716 506.6666575113932 314.66664733886716 485.1766575113932 314.66664733886716 458.6666575113932C314.66664733886716 454.3966575113932 313.92664733886716 450.32665751139325 312.8866473388672 446.3866575113932L414.3866473388672 344.8866575113932C418.32664733886713 345.9266575113932 422.3966473388672 346.6666575113932 426.66664733886716 346.6666575113932C432.81664733886714 346.6666575113932 438.6366473388672 345.40665751139323 444.04664733886716 343.2966575113932L539.3866473388672 419.5666575113932C539.0366473388672 421.8966575113932 538.6766473388673 424.2366575113932 538.6766473388673 426.66665751139317C538.6766473388673 453.17665751139316 560.1666473388673 474.66665751139317 586.6766473388673 474.66665751139317S634.6766473388673 453.17665751139316 634.6766473388673 426.66665751139317C634.6766473388673 424.2366575113932 634.3066473388672 421.9066575113932 633.9666473388672 419.5766575113932L729.3066473388673 343.3066575113932C734.6966473388671 345.40665751139323 740.5166473388672 346.6666575113932 746.6666473388672 346.6666575113932C773.1766473388672 346.6666575113932 794.6666473388672 325.1766575113932 794.6666473388672 298.6666575113932S773.1766473388672 250.66665751139323 746.6666473388672 250.66665751139323S698.6666473388672 272.15665751139323 698.6666473388672 298.6666575113932C698.6666473388672 301.09665751139323 699.0366473388672 303.4266575113932 699.3766473388671 305.7566575113932L604.0366473388672 382.02665751139324C598.6366473388672 379.9166575113932 592.8066473388672 378.65665751139323 586.6566473388672 378.65665751139323S574.6866473388671 379.9166575113932 569.2766473388672 382.02665751139324L473.9566473388672 305.76665751139325C474.3066473388672 303.4366575113932 474.66664733886716 301.09665751139323 474.66664733886716 298.6666575113932C474.66664733886716 272.15665751139323 453.17664733886716 250.66665751139323 426.66664733886716 250.66665751139323S378.66664733886716 272.15665751139323 378.66664733886716 298.6666575113932C378.66664733886716 302.9366575113932 379.4066473388672 307.0066575113932 380.44664733886714 310.94665751139325L278.94664733886714 412.44665751139325C275.0066473388672 411.40665751139323 270.93664733886715 410.6666575113932 266.66664733886716 410.6666575113932C240.15664733886717 410.6666575113932 218.66664733886716 432.15665751139323 218.66664733886716 458.6666575113932S240.15664733886717 506.6666575113932 266.66664733886716 506.6666575113932Z "
                      transform="matrix(0.09868421052631579,0,0,0.09868421052631579,0,0)"></path>
            </g>
        </g>
    </g>
</svg>